<svg width="1461" height="1791" viewBox="0 0 1461 1791" fill="none" xmlns="http://www.w3.org/2000/svg">
<g clip-path="url(#clip0_3548_411)">
<path d="M664.095 438.115L686.22 461.236C683.578 464.949 679.285 466.126 675.292 467.575L643.62 479.044C616.932 488.703 592.675 500.988 568.117 515.657C482.528 566.788 400.93 610.434 296.818 589.758C234.224 577.322 179.856 545.448 126.148 513.454C102.762 499.539 79.4956 488.22 54.0978 478.984L16.7817 465.432C14.9805 464.285 12.3987 463.5 11.7682 460.934L54.8784 417.259L0 384.238L4.95347 377.929L33.4734 348.53C55.5389 325.772 75.713 302.259 94.2359 276.724C94.6862 268.815 93.1251 262.266 92.1945 253.995L66.2564 20.3438L64.8754 0.181102C71.8102 2.29396 76.4635 5.85562 82.1975 9.83986L176.944 75.7005L222.185 107.665C231.672 114.366 240.168 121.58 250.285 127.315C258.001 126.077 264.605 124.266 272.08 122.455C332.483 107.756 381.147 110.291 440.288 126.168C446.022 127.707 449.384 127.133 454.128 123.632L480.396 104.466L592.885 25.6561C605.914 16.5406 617.472 7.87793 631.672 0C633.443 2.20341 633.323 4.64828 632.963 7.90811L603.993 269.842C603.362 275.667 605.073 278.867 608.376 283.213C628.55 310.016 650.825 334.495 674.332 358.763L697.568 382.759C697.568 384.902 694.476 386.562 692.795 387.588L642.87 417.409L664.065 438.146L664.095 438.115Z" fill="#7A0808"/>
</g>
<path d="M664.094 1039.08L686.22 1062.2C683.578 1065.91 679.285 1067.09 675.292 1068.54L643.62 1080.01C616.931 1089.66 592.674 1101.95 568.117 1116.62C482.527 1167.75 400.93 1211.39 296.818 1190.72C234.224 1178.28 179.856 1146.41 126.148 1114.41C102.762 1100.5 79.4956 1089.18 54.0978 1079.95L16.7817 1066.39C14.9805 1065.25 12.3987 1064.46 11.7682 1061.9L54.8784 1018.22L0 985.199L4.95346 978.89L33.4734 949.491C55.5388 926.733 75.7129 903.22 94.2359 877.684C94.6862 869.776 93.1251 863.227 92.1945 854.956L66.2563 621.305L64.8754 601.142C71.8102 603.255 76.4635 606.817 82.1975 610.801L176.944 676.661L222.185 708.626C231.672 715.327 240.168 722.541 250.285 728.275C258 727.038 264.605 725.227 272.08 723.416C332.483 708.717 381.147 711.252 440.288 727.129C446.022 728.668 449.384 728.094 454.128 724.593L480.396 705.426L592.885 626.617C605.914 617.502 617.472 608.839 631.672 600.961C633.443 603.164 633.323 605.609 632.963 608.869L603.992 870.803C603.362 876.628 605.073 879.828 608.375 884.174C628.55 910.977 650.825 935.456 674.332 959.724L697.568 983.72C697.568 985.863 694.476 987.523 692.794 988.549L642.87 1018.37L664.064 1039.11L664.094 1039.08Z" fill="#7A0808"/>
<path d="M664.094 1634.08L686.22 1657.2C683.578 1660.92 679.285 1662.09 675.292 1663.54L643.62 1675.01C616.931 1684.67 592.675 1696.96 568.117 1711.63C482.527 1762.76 400.93 1806.4 296.818 1785.73C234.224 1773.29 179.856 1741.42 126.148 1709.42C102.762 1695.51 79.4956 1684.19 54.0978 1674.95L16.7817 1661.4C14.9805 1660.25 12.3987 1659.47 11.7682 1656.9L54.8784 1613.23L0 1580.21L4.95346 1573.9L33.4734 1544.5C55.5388 1521.74 75.7129 1498.23 94.2359 1472.69C94.6862 1464.78 93.1251 1458.23 92.1945 1449.96L66.2563 1216.31L64.8754 1196.15C71.8102 1198.26 76.4635 1201.82 82.1975 1205.81L176.944 1271.67L222.185 1303.63C231.672 1310.33 240.168 1317.55 250.285 1323.28C258 1322.05 264.605 1320.23 272.08 1318.42C332.483 1303.72 381.147 1306.26 440.288 1322.14C446.022 1323.68 449.384 1323.1 454.128 1319.6L480.396 1300.43L592.885 1221.62C605.914 1212.51 617.472 1203.85 631.672 1195.97C633.443 1198.17 633.323 1200.62 632.963 1203.88L603.992 1465.81C603.362 1471.64 605.073 1474.84 608.375 1479.18C628.55 1505.98 650.825 1530.46 674.332 1554.73L697.568 1578.73C697.568 1580.87 694.476 1582.53 692.795 1583.56L642.87 1613.38L664.064 1634.11L664.094 1634.08Z" fill="#7A0808"/>
<path d="M1427.53 438.115L1449.65 461.236C1447.01 464.949 1442.72 466.126 1438.73 467.575L1407.05 479.044C1380.37 488.703 1356.11 500.988 1331.55 515.657C1245.96 566.788 1164.36 610.434 1060.25 589.758C997.657 577.322 943.289 545.448 889.582 513.454C866.195 499.539 842.929 488.22 817.531 478.984L780.215 465.432C778.414 464.285 775.832 463.5 775.202 460.934L818.312 417.259L763.434 384.238L768.387 377.929L796.907 348.53C818.972 325.772 839.147 302.259 857.669 276.724C858.12 268.815 856.559 262.266 855.628 253.995L829.69 20.3438L828.309 0.181102C835.244 2.29396 839.897 5.85562 845.631 9.83986L940.377 75.7005L985.619 107.665C995.106 114.366 1003.6 121.58 1013.72 127.315C1021.43 126.077 1028.04 124.266 1035.51 122.455C1095.92 107.756 1144.58 110.291 1203.72 126.168C1209.46 127.707 1212.82 127.133 1217.56 123.632L1243.83 104.466L1356.32 25.6561C1369.35 16.5406 1380.91 7.87793 1395.11 0C1396.88 2.20341 1396.76 4.64828 1396.4 7.90811L1367.43 269.842C1366.8 275.667 1368.51 278.867 1371.81 283.213C1391.98 310.016 1414.26 334.495 1437.77 358.763L1461 382.759C1461 384.902 1457.91 386.562 1456.23 387.588L1406.3 417.409L1427.5 438.146L1427.53 438.115Z" fill="#7A0808"/>
<path d="M1427.53 1039.08L1449.65 1062.2C1447.01 1065.91 1442.72 1067.09 1438.73 1068.54L1407.05 1080.01C1380.37 1089.66 1356.11 1101.95 1331.55 1116.62C1245.96 1167.75 1164.36 1211.39 1060.25 1190.72C997.657 1178.28 943.289 1146.41 889.582 1114.41C866.195 1100.5 842.929 1089.18 817.531 1079.95L780.215 1066.39C778.414 1065.25 775.832 1064.46 775.202 1061.9L818.312 1018.22L763.434 985.199L768.387 978.89L796.907 949.491C818.972 926.733 839.147 903.22 857.669 877.684C858.12 869.776 856.559 863.227 855.628 854.956L829.69 621.305L828.309 601.142C835.244 603.255 839.897 606.817 845.631 610.801L940.377 676.661L985.619 708.626C995.106 715.327 1003.6 722.541 1013.72 728.275C1021.43 727.038 1028.04 725.227 1035.51 723.416C1095.92 708.717 1144.58 711.252 1203.72 727.129C1209.46 728.668 1212.82 728.094 1217.56 724.593L1243.83 705.426L1356.32 626.617C1369.35 617.502 1380.91 608.839 1395.11 600.961C1396.88 603.164 1396.76 605.609 1396.4 608.869L1367.43 870.803C1366.8 876.628 1368.51 879.828 1371.81 884.174C1391.98 910.977 1414.26 935.456 1437.77 959.724L1461 983.72C1461 985.863 1457.91 987.523 1456.23 988.549L1406.3 1018.37L1427.5 1039.11L1427.53 1039.08Z" fill="#7A0808"/>
<path d="M1427.53 1634.08L1449.65 1657.2C1447.01 1660.92 1442.72 1662.09 1438.73 1663.54L1407.05 1675.01C1380.37 1684.67 1356.11 1696.96 1331.55 1711.63C1245.96 1762.76 1164.36 1806.4 1060.25 1785.73C997.657 1773.29 943.289 1741.42 889.582 1709.42C866.195 1695.51 842.929 1684.19 817.531 1674.95L780.215 1661.4C778.414 1660.25 775.832 1659.47 775.202 1656.9L818.312 1613.23L763.434 1580.21L768.387 1573.9L796.907 1544.5C818.972 1521.74 839.147 1498.23 857.669 1472.69C858.12 1464.78 856.559 1458.23 855.628 1449.96L829.69 1216.31L828.309 1196.15C835.244 1198.26 839.897 1201.82 845.631 1205.81L940.377 1271.67L985.619 1303.63C995.106 1310.33 1003.6 1317.55 1013.72 1323.28C1021.43 1322.05 1028.04 1320.23 1035.51 1318.42C1095.92 1303.72 1144.58 1306.26 1203.72 1322.14C1209.46 1323.68 1212.82 1323.1 1217.56 1319.6L1243.83 1300.43L1356.32 1221.62C1369.35 1212.51 1380.91 1203.85 1395.11 1195.97C1396.88 1198.17 1396.76 1200.62 1396.4 1203.88L1367.43 1465.81C1366.8 1471.64 1368.51 1474.84 1371.81 1479.18C1391.98 1505.98 1414.26 1530.46 1437.77 1554.73L1461 1578.73C1461 1580.87 1457.91 1582.53 1456.23 1583.56L1406.3 1613.38L1427.5 1634.11L1427.53 1634.08Z" fill="#7A0808"/>
<defs>
<clipPath id="clip0_3548_411">
<rect width="697.598" height="595.01" fill="white"/>
</clipPath>
</defs>
</svg>
